name rise49.25peak52.1432fall72.8391.mot
datacolumns 19
datarows 18
range 13.61661700000000 13.64495000000000
endheader
time	ground_force1_vx	ground_force1_vy	ground_force1_vz	ground_force1_px	ground_force1_py	ground_force1_pz	ground_force2_vx	ground_force2_vy	ground_force2_vz	ground_force2_px	ground_force2_py	ground_force2_pz	ground_torque1_x	ground_torque1_y	ground_torque1_z	ground_torque2_x	ground_torque2_y	ground_torque2_z	
13.61661700000000	10.70408300000000	709.46381499999995	42.55434200000000	0.21254500000000	0.00000000000000	0.10813000000000	0.00000000000000	0.00000000000000	0.00000000000000	0.00000000000000	0.00000000000000	0.00000000000000	0.00000000000000	15.82788000000000	0.00000000000000	0.00000000000000	0.00000000000000	0.00000000000000	
13.61828300000000	10.38338300000000	710.68042100000002	42.60072800000000	0.21176000000000	0.00000000000000	0.10805800000000	0.00000000000000	0.00000000000000	0.00000000000000	0.00000000000000	0.00000000000000	0.00000000000000	0.00000000000000	15.90683600000000	0.00000000000000	0.00000000000000	0.00000000000000	0.00000000000000	
13.61994600000000	10.04748500000000	711.92101600000001	42.65120400000000	0.21094000000000	0.00000000000000	0.10798700000000	0.00000000000000	0.00000000000000	0.00000000000000	0.00000000000000	0.00000000000000	0.00000000000000	0.00000000000000	15.98928700000000	0.00000000000000	0.00000000000000	0.00000000000000	0.00000000000000	
13.62161800000000	9.69621600000000	713.18369099999995	42.70545400000000	0.21008500000000	0.00000000000000	0.10791700000000	0.00000000000000	0.00000000000000	0.00000000000000	0.00000000000000	0.00000000000000	0.00000000000000	0.00000000000000	16.07511600000000	0.00000000000000	0.00000000000000	0.00000000000000	0.00000000000000	
13.62327900000000	9.32945100000000	714.46661400000005	42.76316400000000	0.20919600000000	0.00000000000000	0.10785000000000	0.00000000000000	0.00000000000000	0.00000000000000	0.00000000000000	0.00000000000000	0.00000000000000	0.00000000000000	16.16420800000000	0.00000000000000	0.00000000000000	0.00000000000000	0.00000000000000	
13.62494300000000	8.94711800000000	715.76803199999995	42.82402700000000	0.20827400000000	0.00000000000000	0.10778400000000	0.00000000000000	0.00000000000000	0.00000000000000	0.00000000000000	0.00000000000000	0.00000000000000	0.00000000000000	16.25645300000000	0.00000000000000	0.00000000000000	0.00000000000000	0.00000000000000	
13.62661400000000	8.54919900000000	717.08627500000000	42.88773800000000	0.20732000000000	0.00000000000000	0.10771900000000	0.00000000000000	0.00000000000000	0.00000000000000	0.00000000000000	0.00000000000000	0.00000000000000	0.00000000000000	16.35173800000000	0.00000000000000	0.00000000000000	0.00000000000000	0.00000000000000	
13.62827900000000	8.13572600000000	718.41975600000001	42.95399900000000	0.20633600000000	0.00000000000000	0.10765600000000	0.00000000000000	0.00000000000000	0.00000000000000	0.00000000000000	0.00000000000000	0.00000000000000	0.00000000000000	16.44995700000000	0.00000000000000	0.00000000000000	0.00000000000000	0.00000000000000	
13.62995100000000	7.70678200000000	719.76696700000002	43.02251900000000	0.20532300000000	0.00000000000000	0.10759400000000	0.00000000000000	0.00000000000000	0.00000000000000	0.00000000000000	0.00000000000000	0.00000000000000	0.00000000000000	16.55100300000000	0.00000000000000	0.00000000000000	0.00000000000000	0.00000000000000	
13.63161200000000	7.26250200000000	721.12648600000000	43.09301600000000	0.20428300000000	0.00000000000000	0.10753300000000	0.00000000000000	0.00000000000000	0.00000000000000	0.00000000000000	0.00000000000000	0.00000000000000	0.00000000000000	16.65477100000000	0.00000000000000	0.00000000000000	0.00000000000000	0.00000000000000	
13.63327800000000	6.80306600000000	722.49697100000003	43.16521300000000	0.20321700000000	0.00000000000000	0.10747400000000	0.00000000000000	0.00000000000000	0.00000000000000	0.00000000000000	0.00000000000000	0.00000000000000	0.00000000000000	16.76115800000000	0.00000000000000	0.00000000000000	0.00000000000000	0.00000000000000	
13.63494500000000	6.32870600000000	723.87716200000000	43.23884400000000	0.20212900000000	0.00000000000000	0.10741500000000	0.00000000000000	0.00000000000000	0.00000000000000	0.00000000000000	0.00000000000000	0.00000000000000	0.00000000000000	16.87006200000000	0.00000000000000	0.00000000000000	0.00000000000000	0.00000000000000	
13.63661600000000	5.83969900000000	725.26588100000004	43.31365400000000	0.20102000000000	0.00000000000000	0.10735700000000	0.00000000000000	0.00000000000000	0.00000000000000	0.00000000000000	0.00000000000000	0.00000000000000	0.00000000000000	16.98138000000000	0.00000000000000	0.00000000000000	0.00000000000000	0.00000000000000	
13.63828100000000	5.33636500000000	726.66202699999997	43.38939600000000	0.19989200000000	0.00000000000000	0.10730000000000	0.00000000000000	0.00000000000000	0.00000000000000	0.00000000000000	0.00000000000000	0.00000000000000	0.00000000000000	17.09501300000000	0.00000000000000	0.00000000000000	0.00000000000000	0.00000000000000	
13.63994500000000	4.81907000000000	728.06457499999999	43.46583600000000	0.19874700000000	0.00000000000000	0.10724400000000	0.00000000000000	0.00000000000000	0.00000000000000	0.00000000000000	0.00000000000000	0.00000000000000	0.00000000000000	17.21085900000000	0.00000000000000	0.00000000000000	0.00000000000000	0.00000000000000	
13.64161400000000	4.28821800000000	729.47257700000000	43.54275200000000	0.19758800000000	0.00000000000000	0.10718800000000	0.00000000000000	0.00000000000000	0.00000000000000	0.00000000000000	0.00000000000000	0.00000000000000	0.00000000000000	17.32881600000000	0.00000000000000	0.00000000000000	0.00000000000000	0.00000000000000	
13.64327500000000	3.74425700000000	730.88515800000005	43.61993400000000	0.19641700000000	0.00000000000000	0.10713300000000	0.00000000000000	0.00000000000000	0.00000000000000	0.00000000000000	0.00000000000000	0.00000000000000	0.00000000000000	17.44878300000000	0.00000000000000	0.00000000000000	0.00000000000000	0.00000000000000	
13.64495000000000	3.18766700000000	732.30151000000001	43.69718500000000	0.19523600000000	0.00000000000000	0.10707800000000	0.00000000000000	0.00000000000000	0.00000000000000	0.00000000000000	0.00000000000000	0.00000000000000	0.00000000000000	17.57065700000000	0.00000000000000	0.00000000000000	0.00000000000000	0.00000000000000	
